<?xml version="1.0" encoding="UTF-8"?>
<svg width="56px" height="45px" viewBox="0 0 56 45" version="1.1" xmlns="http://www.w3.org/2000/svg" xmlns:xlink="http://www.w3.org/1999/xlink">
    <!-- Generator: Sketch 63.1 (92452) - https://sketch.com -->
    <title>mdpi/Pinned_Tab</title>
    <desc>Created with Sketch.</desc>
    <g id="Page-1" stroke="none" stroke-width="1" fill="none" fill-rule="evenodd">
        <g id="Pinned_Tab" transform="translate(0.000000, -6.000000)" fill="#FFFFFF" fill-rule="nonzero">
            <g transform="translate(0.000000, 6.000000)" id="tripbtoz_logo_h_white">
                <path d="M36.8463768,30.2365586 L37.69708,30.2365586 C49.6033973,29.7183574 52.4868378,13.4686339 53.1594203,7.33695652 C41.2365695,12.9837933 37.6238916,22.559396 36.8463768,30.2445652 L36.8463768,30.2365586 Z M3.48985507,22.4250001 C4.2411414,24.2579126 5.82692062,25.5946666 7.72963477,26.0003714 C13.4468268,27.1976573 13.7699416,33.9852485 13.253046,39.2119565 C15.9823077,36.6605389 20.1655865,33.5394411 24.413091,33.3493991 C24.7843317,33.3287062 25.1564206,33.3287062 25.527661,33.3493991 C29.1534342,33.6385837 32.0848634,35.7439712 34.1681159,37.8988187 C34.0154787,36.252188 33.95888,34.5979228 33.998613,32.9445856 C33.5654998,32.8720042 33.1345709,32.7867128 32.706374,32.68882 C20.383645,29.8237105 14.3673953,25.1994329 14.3431175,18.5359371 C14.3428165,18.1478065 14.4971097,17.7758502 14.7712888,17.5037402 C14.9569033,17.305455 19.1642392,12.9868485 23.1614621,3.3423913 C19.2125741,4.47373075 11.9528617,7.91698622 12.4777026,18.0237375 C12.4956337,18.3638336 12.3957526,18.6996271 12.1951978,18.9735012 C10.4471991,21.1105253 7.89979984,22.3962597 5.17760084,22.5158992 C4.61413608,22.5395152 4.04978851,22.5172361 3.48985507,22.4497299 L3.48985507,22.4250001 Z M36.4791068,44.9990278 C35.9451283,45.0190773 35.4464249,44.7276925 35.1904591,44.246729 C35.1904591,44.1721007 31.1642341,36.8057202 25.2373363,36.3263162 C24.9692385,36.3085537 24.7002772,36.3085537 24.4321794,36.3263162 C18.6018474,36.5907459 12.2968436,44.3623473 12.2320253,44.4365302 C11.8362502,44.9463472 11.1422166,45.108309 10.5652713,44.825489 C9.97793889,44.5574951 9.64524951,43.9121265 9.76011433,43.2627479 C11.3303025,34.2097656 10.4850202,29.6625566 7.07853647,28.9432279 C2.10186486,27.885064 0.281884153,23.155851 0.00828076372,20.7501431 C-0.0431109434,20.2643664 0.146955636,19.784407 0.515802943,19.4685395 C0.880536521,19.1538878 1.38229756,19.0565508 1.83641886,19.2123524 C2.84236554,19.5666896 3.90400961,19.7319624 4.96885817,19.6999989 C6.69403672,19.6195785 8.32882245,18.8864379 9.55904566,17.6415916 C9.1476485,1.88319146 24.995701,0.0228278677 25.1566441,0.00634278736 C25.6444797,-0.0404499164 26.1209969,0.174015575 26.4128828,0.571736488 C26.7085183,0.97274982 26.7814094,1.49839146 26.6062352,1.9660624 C22.8057714,12.1683222 18.4569985,17.5834483 17.0559112,19.1544319 C17.4587099,23.9827783 22.6928908,27.5128132 33.1612523,29.9436941 C33.4442536,30.0094915 33.7289874,30.0674337 34.0151331,30.1174559 C34.9009819,21.1221713 39.2490933,9.78734193 54.0823219,3.72706998 C54.5242684,3.55043995 55.0247446,3.61269804 55.4110952,3.89236632 C55.797534,4.17872842 56.0178285,4.64044796 55.9988685,5.12429192 C55.9988685,6.24861894 54.8797623,32.5149212 37.7675341,33.2839278 L36.6241762,33.2839278 C36.5453304,36.5973349 36.9082492,39.9063889 37.7031568,43.1219565 C37.9073123,43.8294783 37.5602922,44.5808861 36.8980001,44.8669245 C36.7656533,44.9317777 36.6244661,44.9763029 36.4791068,44.9990278 Z"></path>
            </g>
        </g>
    </g>
</svg>